<?xml version="1.0" encoding="utf-8"?>
<!-- Generator: Adobe Illustrator 23.0.1, SVG Export Plug-In . SVG Version: 6.00 Build 0)  -->
<svg version="1.1" id="Layer_1" xmlns="http://www.w3.org/2000/svg" xmlns:xlink="http://www.w3.org/1999/xlink" x="0px" y="0px"
	 viewBox="0 0 1000 1000" style="enable-background:new 0 0 1000 1000;" xml:space="preserve">
<style type="text/css">
	.st0{fill-rule:evenodd;clip-rule:evenodd;fill:#4B100F;stroke:#231F20;stroke-width:0.5669;stroke-miterlimit:22.9256;}
	.st1{fill-rule:evenodd;clip-rule:evenodd;fill:#FFFFFF;stroke:#FFFFFF;stroke-width:0.5669;stroke-miterlimit:22.9256;}
	.st2{fill:#EC1C24;stroke:#FFFFFF;stroke-width:0.5669;stroke-miterlimit:22.9256;}
</style>
<g>
	<path class="st0" d="M273.1,383.7c2.1-27.7,10.3-54.2,25.7-77.8c14-21.5,33-38.9,55.1-51.8c20-11.6,42.4-19.4,65.2-23
		c19.9-3.1,40.8-3.2,60.5,0.9c0.5,0.1,1,0.2,1.5,0.3c19-25.1,44.9-43.5,74.4-54.7c34.6-13.2,73-16.3,109.5-10.7
		c37.3,5.7,73.5,20.4,103.2,43.8c30.6,24.1,52.5,56,63.3,93.1c76.7,13.5,133,66,156.6,140.6c12.3,38.7,14.9,80.7,8.5,120.8
		c-6.4,39.8-22,78.7-47.6,110c-23,28.2-52.8,48.8-87.7,59.1c-9.5,2.8-19.2,4.8-29,6.1c-14.5,1.9-29.1,2-43.7,0.8c-0.1,0-0.3,0-0.4,0
		l-0.2,0l-0.2,0c-0.1,0-0.3,0-0.4-0.1c-5.7-0.7-11.3-1.6-16.9-2.9c-9.3,22.1-24.3,41.2-43.1,56.4c-24.9,20.1-55.5,32.9-87,38.2
		c-32.2,5.4-65.9,3-96.8-7.9c-25.8-9.1-48.6-23.9-67-43.9c-24.3,16.9-53.5,27.5-82.6,31.5c-21.3,2.9-43,2.5-64.1-1.7
		c-22-4.4-43.1-12.8-61.6-25.5c-29.4-20.1-50.6-49.3-59.7-83.4c-56.7,3.8-105.6-18.1-142.3-61.9c-16.9-20.2-30-43.4-40.1-67.6
		c-3.4-8.1-6.2-16.8-8.8-25.2c-3.8-12.2-7.2-24.5-10.2-37C2.6,491.1-7,448.6,8.3,432.4c0.9-1,1.9-1.9,3-2.7c9.7-7,22.4-4.3,33-1.1
		c15,4.5,30.2,11,44.9,16.6c16.2,6.2,40,10.9,56.6,4.1c7.3-5,14-11.6,20.3-17.7c17.5-17,33.7-31.1,56.9-39.9
		C239.2,385.6,256.1,383.2,273.1,383.7L273.1,383.7z"/>
	<path class="st1" d="M821.9,314.5c75.1,10.5,131.4,59.8,154.8,133.6c11.7,36.9,14.2,77.1,8.1,115.2c-6.1,37.7-20.8,74.6-45.1,104.4
		c-21.4,26.3-49.2,45.6-81.8,55.2c-8.9,2.6-18,4.5-27.2,5.7c-13.6,1.8-27.4,1.9-41.1,0.8c-0.1,0-0.3,0-0.4,0c-0.1,0-0.3,0-0.4-0.1
		c-8.8-1-17.4-2.8-25.7-5.3c0,0.1-0.1,0.2-0.1,0.4c-8,24.3-23.3,45-43.1,61.1c-23.3,18.8-52,30.7-81.4,35.6
		c-30.2,5-61.9,2.9-90.8-7.4c-27.9-9.9-51.4-26.6-69.2-48.9c-24.3,19.8-55.5,31.8-86,36c-19.9,2.8-40.4,2.4-60.1-1.6
		c-20.4-4-40-11.8-57.2-23.6c-30.3-20.7-50.5-51.4-57.2-86.6c-0.1,0-0.2,0-0.3,0.1c-0.8,0.1-1.7,0.3-2.5,0.4
		c-0.7,0.1-1.5,0.2-2.2,0.3c-0.2,0-0.4,0-0.6,0.1c-0.2,0-0.4,0-0.6,0.1c-54.8,4.8-101.3-15.7-136.1-57.4
		c-15.9-19-28.4-41.2-38.3-64.6C28.6,547.7,0.7,458,17,440.7c8.1-8.6,28.2,0.6,67.9,15.8c22.2,8.5,48.3,11.6,66.6,3.5
		c8.3-5.4,15.8-12.9,22.9-19.7c16.3-15.8,31.2-29.1,52.8-37.3c18.7-7.1,38.1-8.5,57.3-6.4c0.4-29.6,7.6-58.5,24.3-84.1
		c13-19.9,30.6-36,51.1-47.9c18.7-10.9,39.7-18.1,61.1-21.5c18.4-2.9,37.9-3,56.2,0.8c3.1,0.6,6.1,1.3,9.2,1.9
		c17.7-26.1,43.3-45.3,73.5-56.9c32.7-12.5,68.9-15.3,103.4-10.1c35.2,5.4,69.5,19.3,97.5,41.4C791.7,244.6,812.7,277,821.9,314.5
		L821.9,314.5z"/>
	<path class="st2" d="M947.8,457.3C928.4,396,879.9,346.3,800,342.9l-3.9-0.2l-0.5-3.9c-5.1-41-25.6-72.8-53.7-94.9
		c-23.9-18.8-53.2-30.7-83.3-35.2c-30.1-4.6-61.1-1.9-88.1,8.4c-30.2,11.5-55.4,32.5-69.1,63.5c-5.8,15.8-8.2,32.8-6.6,49.6
		c1.7,17.5,7.6,34.1,17.7,48.5c5.1,6.5,11.2,12.3,17.9,17.2c11.5,8.4,25.1,14.4,39.1,16.9c12.1,2.2,25.2,1.7,36.6-3.4
		c3.8-1.7,7.5-3.8,10.9-6.2c22.7-15.8,39.1-48.2,20.4-73.3c-5.1-6.9-3.7-16.7,3.2-21.8c6.9-5.1,16.7-3.7,21.8,3.2
		c9.2,12.4,14.2,26.8,14.3,42.2c0.3,36.1-25.6,69.8-57.9,84.2c-17.2,7.7-36.4,8.9-54.8,5.6c-18.6-3.3-36.7-11.3-51.9-22.4
		c-9.2-6.7-17.4-14.6-24.4-23.5c-0.1-0.2-0.3-0.4-0.4-0.6c-13.6-19.2-21.5-41.3-23.6-64.7c-1.7-19.9,0.9-40,7.2-58.9
		c-13.4-2.8-29.1-3-45.3-0.5c-17,2.7-34.6,8.5-50.6,17.8c-15.9,9.2-30.2,21.9-40.9,38.3c-15.8,24.3-23.7,56.8-17.1,98.8l1.1,7.1
		l-6.9-2c-65.9-19.2-91.1,5.2-115.8,29.1c-9.1,8.8-18.2,17.6-29.1,24.4l-0.3,0.2l-0.2,0.1c-41.4,19.8-98.5-3.3-124.2-14.1
		c1.4,8.7,3.3,18.5,5.8,28.9c8.6,35.9,24.2,79.2,51.2,111.6c25.3,30.3,60.8,51,110.3,46.6c0.6-0.1,1.3-0.2,1.9-0.2
		c0.7-0.1,1.4-0.2,2.2-0.3c0.5-7.8,1.6-15.6,3.4-23.3c8.1-34.2,30.4-63.4,63.4-76.7c13.4-5.4,27.7-7.7,42.1-7c0.4,0,0.8,0.1,1.2,0.1
		c7.4,0.9,14.7,2.4,21.8,4.4c21.6,5.7,40.8,16.8,52.3,33.4c10.4,14,15.6,31.9,12.9,53.7c-1.1,9.1-9.5,15.7-18.7,14.5
		c-9.2-1.1-15.7-9.5-14.5-18.7c4.5-35.5-27.2-50.2-57.2-54.1c-9.4-0.4-18.6,1.2-27.3,4.7c-22.9,9.2-37.8,29.8-43.4,53.4
		c-2,8.4-3,16.8-3.1,25.1c1.5,32.6,17.7,62.4,46.2,81.9c13.9,9.5,29.6,15.7,46,18.9c16.4,3.3,33.5,3.5,50.1,1.3
		c37.5-5.2,72.1-23.5,90.5-50.4l4.5-6.7l3.4,7.3c15.4,32.9,41.4,53.7,70.9,64.2c24.1,8.5,50.6,10.2,75.7,6
		c25.1-4.2,48.8-14.3,67.4-29.3c15.4-12.4,27.2-28.3,33.4-47c-8.4-4.9-16.4-10.9-22.8-17c-15.2-14.4-26.9-32.6-32.6-52.8
		c-3.9-13.8-4.9-28.1-2.6-42.2c1.3-7.8,3.3-15.6,5.9-23c9.1-25.7,26.8-50.1,52.1-61.8c22.3-10.3,46.1-8.7,68.1,1.3
		c8.4,3.8,12.1,13.8,8.3,22.1c-3.8,8.4-13.8,12.1-22.1,8.3c-13.1-6-26.9-7.6-40.3-1.4c-21.9,10.1-35.3,37-39,59.8
		c-4.8,29.9,13.2,59,37.4,75.2l0,0l0,0c14.2,9,29.7,14,45.6,15.8c12.2,1,23.7,0.8,34.5-0.6c7.6-1.1,15.2-2.7,22.6-4.8
		c27.4-8.2,49.8-24.3,66.9-45.3c20.3-24.8,33.3-56.5,38.7-90.1C960.3,524.9,958,489.5,947.8,457.3L947.8,457.3z"/>
</g>
</svg>
